<?xml version="1.0" encoding="UTF-8"?>
<!--Generator: Apple Native CoreSVG 341-->
<!DOCTYPE svg
PUBLIC "-//W3C//DTD SVG 1.1//EN"
       "http://www.w3.org/Graphics/SVG/1.1/DTD/svg11.dtd">
<svg version="1.1" xmlns="http://www.w3.org/2000/svg" xmlns:xlink="http://www.w3.org/1999/xlink" viewBox="0 0 1463.41 1346.73">
 <g>
  <rect height="1346.73" opacity="0" width="1463.41" x="0" y="0"/>
  <path d="M293.473 803.493C293.473 854.274 320.329 880.641 369.157 880.641L451.676 880.641L451.676 959.254L368.18 959.254C265.641 959.254 214.86 908.473 214.86 807.887L214.86 738.063L293.473 738.063ZM293.473 671.657L214.86 671.657L214.86 449.977L293.473 449.977ZM1011.25 313.747L1011.25 388.454L932.633 388.454L932.633 318.141C932.633 267.36 905.29 240.993 856.95 240.993L785.172 240.993L785.172 162.379L858.415 162.379C960.465 162.379 1011.25 213.161 1011.25 313.747ZM441.422 240.993L369.157 240.993C320.329 240.993 293.473 267.36 293.473 318.141L293.473 383.571L214.86 383.571L214.86 313.747C214.86 213.161 265.641 162.379 368.18 162.379L441.422 162.379ZM723.161 240.993L502.946 240.993L502.946 162.379L723.161 162.379Z" fill="white" fill-opacity="0.85"/>
  <path d="M1248.06 539.821L1248.06 868.249L1169.45 789.764L1169.45 544.215C1169.45 493.434 1142.11 467.067 1093.77 467.067L605.973 467.067C557.633 467.067 530.29 493.434 530.29 544.215L530.29 1029.57C530.29 1080.35 557.633 1106.72 605.973 1106.72L962.419 1106.72L962.419 1185.33L604.997 1185.33C502.458 1185.33 451.676 1134.55 451.676 1033.96L451.676 539.821C451.676 438.747 502.458 388.454 604.997 388.454L1095.23 388.454C1196.79 388.454 1248.06 439.235 1248.06 539.821Z" fill="white" fill-opacity="0.85"/>
  <path d="M1201.19 1158.96L1357.44 1158.96C1397.97 1158.96 1414.57 1122.34 1390.15 1097.93L1090.84 798.122C1064.47 771.754 1023.94 785.915 1023.94 824.489L1023.94 1249.78C1023.94 1283.96 1062.03 1298.12 1090.35 1269.8Z" fill="white" fill-opacity="0.85"/>
 </g>
</svg>
